<svg width="36" height="36" viewBox="0 0 36 36" fill="none" xmlns="http://www.w3.org/2000/svg">
<path d="M29.25 27V31.5H6.75V27H4.5V31.5L4.509 31.4944C4.50796 31.7896 4.56512 32.0822 4.67719 32.3554C4.78926 32.6286 4.95406 32.877 5.16218 33.0865C5.37029 33.296 5.61763 33.4624 5.89007 33.5762C6.16252 33.6901 6.45473 33.7491 6.75 33.75H29.25C29.8467 33.75 30.419 33.5129 30.841 33.091C31.2629 32.669 31.5 32.0967 31.5 31.5V27H29.25Z" fill="black"/>
<path d="M6.75 13.5L8.33737 15.0806L16.875 6.55312V27H19.125V6.55312L27.6649 15.0806L29.25 13.5L18 2.25L6.75 13.5Z" fill="black"/>
</svg>
