<svg width="24" height="24" viewBox="0 0 24 24" fill="none" xmlns="http://www.w3.org/2000/svg">
<path d="M12.0001 6C6.30006 6 2.00006 8.15 2.00006 11C2.00006 13.45 5.19006 15.38 9.71006 15.88L9.29006 16.29C9.19633 16.383 9.12194 16.4936 9.07117 16.6154C9.0204 16.7373 8.99426 16.868 8.99426 17C8.99426 17.132 9.0204 17.2627 9.07117 17.3846C9.12194 17.5064 9.19633 17.617 9.29006 17.71C9.38302 17.8037 9.49362 17.8781 9.61548 17.9289C9.73734 17.9797 9.86805 18.0058 10.0001 18.0058C10.1321 18.0058 10.2628 17.9797 10.3846 17.9289C10.5065 17.8781 10.6171 17.8037 10.7101 17.71L12.7101 15.71C12.8011 15.6149 12.8725 15.5028 12.9201 15.38C13.0201 15.1365 13.0201 14.8635 12.9201 14.62C12.8725 14.4972 12.8011 14.3851 12.7101 14.29L10.7101 12.29C10.5218 12.1017 10.2664 11.9959 10.0001 11.9959C9.73376 11.9959 9.47836 12.1017 9.29006 12.29C9.10176 12.4783 8.99597 12.7337 8.99597 13C8.99597 13.2663 9.10176 13.5217 9.29006 13.71L9.41006 13.82C6.00006 13.34 4.00006 12 4.00006 11C4.00006 9.78 7.12006 8 12.0001 8C16.8801 8 20.0001 9.78 20.0001 11C20.0001 11.83 18.5501 13 15.7901 13.6C15.6594 13.625 15.5351 13.6759 15.4243 13.7495C15.3136 13.8232 15.2187 13.9182 15.1451 14.0291C15.0715 14.1399 15.0208 14.2643 14.9959 14.3949C14.971 14.5256 14.9724 14.6599 15.0001 14.79C15.0274 14.9188 15.0799 15.041 15.1545 15.1495C15.2292 15.258 15.3245 15.3507 15.4351 15.4222C15.5457 15.4938 15.6693 15.5428 15.7988 15.5664C15.9284 15.5901 16.0613 15.5879 16.1901 15.56C19.8401 14.76 22.0001 13.06 22.0001 11C22.0001 8.15 17.7001 6 12.0001 6Z" fill="white"/>
</svg>
