<svg width="24" height="24" viewBox="0 0 24 24" fill="none" xmlns="http://www.w3.org/2000/svg">
<path fill-rule="evenodd" clip-rule="evenodd" d="M12.5088 1.49121C12.3738 1.35637 12.1908 1.28064 12 1.28064C11.8092 1.28064 11.6262 1.35637 11.4912 1.49121L8.69121 4.29121C8.62047 4.35712 8.56373 4.43661 8.52438 4.52493C8.48502 4.61325 8.46386 4.70859 8.46216 4.80526C8.46045 4.90194 8.47824 4.99797 8.51445 5.08762C8.55066 5.17727 8.60456 5.25871 8.67293 5.32708C8.7413 5.39545 8.82274 5.44935 8.91239 5.48556C9.00205 5.52178 9.09807 5.53956 9.19475 5.53785C9.29142 5.53615 9.38676 5.51499 9.47508 5.47564C9.5634 5.43628 9.64289 5.37955 9.70881 5.30881L11.2 3.81761V8.80001C11.2 9.01218 11.2843 9.21566 11.4343 9.36569C11.5844 9.51572 11.7878 9.60001 12 9.60001C12.2122 9.60001 12.4157 9.51572 12.5657 9.36569C12.7157 9.21566 12.8 9.01218 12.8 8.80001V3.81761L14.2912 5.30881C14.4277 5.43599 14.6082 5.50522 14.7947 5.50193C14.9813 5.49864 15.1592 5.42308 15.2912 5.29116C15.4231 5.15925 15.4986 4.98128 15.5019 4.79475C15.5052 4.60822 15.436 4.42769 15.3088 4.29121L12.5088 1.49121ZM12.8 15.2C12.8 14.9878 12.7157 14.7843 12.5657 14.6343C12.4157 14.4843 12.2122 14.4 12 14.4C11.7878 14.4 11.5844 14.4843 11.4343 14.6343C11.2843 14.7843 11.2 14.9878 11.2 15.2V20.1824L9.70881 18.6912C9.57232 18.564 9.39179 18.4948 9.20527 18.4981C9.01874 18.5014 8.84077 18.5769 8.70885 18.7088C8.57693 18.8408 8.50137 19.0187 8.49808 19.2053C8.49479 19.3918 8.56403 19.5723 8.69121 19.7088L11.4912 22.5088C11.6262 22.6436 11.8092 22.7194 12 22.7194C12.1908 22.7194 12.3738 22.6436 12.5088 22.5088L15.3088 19.7088C15.436 19.5723 15.5052 19.3918 15.5019 19.2053C15.4986 19.0187 15.4231 18.8408 15.2912 18.7088C15.1592 18.5769 14.9813 18.5014 14.7947 18.4981C14.6082 18.4948 14.4277 18.564 14.2912 18.6912L12.8 20.1824V15.2ZM14.4 12C14.4 11.7878 14.4843 11.5843 14.6343 11.4343C14.7844 11.2843 14.9878 11.2 15.2 11.2H20.1824L18.6912 9.70881C18.564 9.57232 18.4948 9.39179 18.4981 9.20526C18.5014 9.01873 18.5769 8.84077 18.7089 8.70885C18.8408 8.57693 19.0187 8.50137 19.2053 8.49808C19.3918 8.49479 19.5723 8.56402 19.7088 8.69121L22.5088 11.4912C22.6436 11.6262 22.7194 11.8092 22.7194 12C22.7194 12.1908 22.6436 12.3738 22.5088 12.5088L19.7088 15.3088C19.5723 15.436 19.3918 15.5052 19.2053 15.5019C19.0187 15.4986 18.8408 15.4231 18.7089 15.2912C18.5769 15.1592 18.5014 14.9813 18.4981 14.7947C18.4948 14.6082 18.564 14.4277 18.6912 14.2912L20.1824 12.8H15.2C14.9878 12.8 14.7844 12.7157 14.6343 12.5657C14.4843 12.4157 14.4 12.2122 14.4 12ZM5.30881 9.70881L3.81761 11.2H8.80001C9.01218 11.2 9.21566 11.2843 9.36569 11.4343C9.51572 11.5843 9.60001 11.7878 9.60001 12C9.60001 12.2122 9.51572 12.4157 9.36569 12.5657C9.21566 12.7157 9.01218 12.8 8.80001 12.8H3.81761L5.30881 14.2912C5.43599 14.4277 5.50523 14.6082 5.50193 14.7947C5.49864 14.9813 5.42308 15.1592 5.29116 15.2912C5.15925 15.4231 4.98128 15.4986 4.79475 15.5019C4.60822 15.5052 4.42769 15.436 4.29121 15.3088L1.49121 12.5088C1.35637 12.3738 1.28064 12.1908 1.28064 12C1.28064 11.8092 1.35637 11.6262 1.49121 11.4912L4.29121 8.69121C4.35712 8.62047 4.43661 8.56373 4.52493 8.52438C4.61325 8.48502 4.70859 8.46386 4.80526 8.46216C4.90194 8.46045 4.99797 8.47824 5.08762 8.51445C5.17727 8.55066 5.25871 8.60456 5.32708 8.67293C5.39545 8.7413 5.44935 8.82274 5.48556 8.91239C5.52178 9.00204 5.53956 9.09807 5.53785 9.19475C5.53615 9.29142 5.51499 9.38676 5.47564 9.47508C5.43628 9.5634 5.37955 9.64289 5.30881 9.70881Z" fill="white"/>
</svg>
