<svg width="52" height="52" viewBox="0 0 52 52" fill="none" xmlns="http://www.w3.org/2000/svg">
<circle cx="26" cy="26" r="26" fill="#3589FF"/>
<path fill-rule="evenodd" clip-rule="evenodd" d="M33.5908 25.2342C33.5859 25.069 33.5831 25.02 33.574 24.7995L33.5614 24.5468C33.5614 24.5727 33.5481 24.341 33.5509 24.3655L33.546 24.2878L31.9717 24.39V24.3949C31.9787 24.4873 31.9836 24.5727 31.9892 24.6658C31.9892 24.6658 32.0214 25.615 32.0214 25.6136V25.6458V25.6332V25.6703V25.7403V25.7858V25.7725V25.8243V26C32.0219 27.2369 31.9283 28.472 31.7414 29.6946C32.3089 29.5363 32.8664 29.3442 33.4109 29.1192C33.5372 28.0843 33.6008 27.0426 33.6013 26C33.6013 25.8355 33.6013 25.6703 33.5964 25.5058L33.5908 25.2328V25.2342ZM17.4264 32.0592L13.0367 30.7845L13.89 29.8633C12.8001 28.8392 12 27.5323 12 26C12.0077 24.81 12.4536 23.8083 13.1823 22.8899C14.2582 21.5795 15.7933 20.6114 17.5104 19.9177C17.3597 20.5449 17.2348 21.1784 17.1359 21.8182C16.4044 22.1805 15.7209 22.6325 15.101 23.1636C14.3709 23.8118 13.7591 24.6133 13.61 25.58C13.5113 26.2282 13.645 26.8442 13.9453 27.4168C14.2105 27.899 14.5537 28.334 14.961 28.7041L15.8122 27.7822L17.4264 32.0592ZM22.8864 18.5891C23.9194 18.4623 24.9592 18.3982 26 18.3973C28.2883 18.3973 30.6046 18.685 32.8005 19.3332C35.8105 20.2208 39.9783 22.3558 40 26C39.9923 27.1858 39.5478 28.191 38.8191 29.1087C36.031 32.51 30.1531 33.6027 26 33.6027C24.8306 33.6074 23.6624 33.5286 22.5042 33.3668L22.7177 31.8051C23.8052 31.9562 24.9021 32.0296 26 32.0249C29.5126 32.0249 34.1641 31.2199 36.899 28.8364C37.7341 28.0951 38.4117 27.1564 38.4222 26C38.4054 24.1142 36.5945 22.7387 35.0853 21.94C32.3833 20.5204 29.024 19.9737 26 19.9737C24.7625 19.9736 23.5267 20.0672 22.3033 20.2537C22.4648 19.6864 22.6605 19.1293 22.8892 18.5856L22.8864 18.5891ZM30.179 34.8592C30.809 34.7605 31.4432 34.6401 32.069 34.4917C30.97 37.1664 28.9932 39.9818 26 40C24.81 39.9923 23.8083 39.5478 22.8899 38.8191C19.49 36.0296 18.3973 30.1531 18.3973 26C18.3973 23.7131 18.685 21.3954 19.3332 19.1995C20.2208 16.1923 22.3558 12.0217 26 12C27.8851 12 29.4055 13.2005 30.4933 14.6418L31.5013 13.8942L32.2923 18.3931L28.2169 16.3281L29.2249 15.5805C28.4717 14.5599 27.3258 13.5778 26 13.5778C24.1142 13.5946 22.7387 15.4069 21.94 16.9154C20.5204 19.6167 19.9737 22.976 19.9737 26C19.9737 29.5133 20.7787 34.1641 23.1636 36.899C23.9049 37.7341 24.8436 38.4117 26 38.4222C27.8858 38.4054 29.2613 36.5945 30.06 35.086L30.179 34.8592Z" fill="white"/>
</svg>
