<svg width="16" height="16" viewBox="0 0 16 16" fill="none" xmlns="http://www.w3.org/2000/svg">
<path d="M14 9H8.5C7.94772 9 7.5 9.44772 7.5 10V13C7.5 13.5523 7.94772 14 8.5 14H14C14.5523 14 15 13.5523 15 13V10C15 9.44772 14.5523 9 14 9Z" fill="white"/>
<path d="M4.1465 8.1465V6.3535L6.293 8.5L7 7.793L4.8535 5.6465H6.6465L6.6465 4.6465H3.1465L3.1465 8.1465H4.1465Z" fill="white"/>
<path d="M6.5 11H2C1.73486 10.9997 1.48066 10.8943 1.29319 10.7068C1.10571 10.5193 1.00026 10.2651 1 10V3.5C1.00026 3.23486 1.10571 2.98066 1.29319 2.79319C1.48066 2.60571 1.73486 2.50026 2 2.5H13C13.2651 2.50026 13.5193 2.60571 13.7068 2.79319C13.8943 2.98066 13.9997 3.23486 14 3.5V8H13V3.5H2V10H6.5V11Z" fill="white"/>
</svg>
